<svg width="36" height="36" viewBox="0 0 36 36" fill="none" xmlns="http://www.w3.org/2000/svg">
<path d="M18 36C27.9411 36 36 27.9411 36 18C36 8.05888 27.9411 0 18 0C8.05888 0 0 8.05888 0 18C0 27.9411 8.05888 36 18 36Z" fill="#F2994A"/>
<path fill-rule="evenodd" clip-rule="evenodd" d="M17.3201 25.8946H18.7329C18.7329 25.8946 19.1596 25.8478 19.3775 25.6129C19.578 25.3973 19.5716 24.9923 19.5716 24.9923C19.5716 24.9923 19.544 23.0966 20.4238 22.8175C21.2912 22.5425 22.4049 24.6496 23.5853 25.4598C24.478 26.073 25.1563 25.9386 25.1563 25.9386L28.3127 25.8946C28.3127 25.8946 29.9639 25.7929 29.1809 24.4947C29.1168 24.3884 28.725 23.5343 26.8341 21.7792C24.855 19.9422 25.1201 20.2393 27.5041 17.0618C28.956 15.1266 29.5365 13.9452 29.3552 13.4392C29.1822 12.9572 28.1144 13.0846 28.1144 13.0846L24.5605 13.1068C24.5605 13.1068 24.297 13.0708 24.1016 13.1876C23.9107 13.3022 23.7878 13.5691 23.7878 13.5691C23.7878 13.5691 23.2253 15.0666 22.4751 16.3401C20.8926 19.0274 20.2599 19.1692 20.0013 19.0024C19.3996 18.6135 19.5498 17.4401 19.5498 16.6065C19.5498 14.0023 19.9448 12.9165 18.7807 12.6354C18.3944 12.542 18.1101 12.4804 17.1221 12.4705C15.8541 12.4573 14.7808 12.4743 14.173 12.7721C13.7687 12.9701 13.4569 13.4113 13.6468 13.4366C13.8817 13.468 14.4137 13.58 14.6957 13.9641C15.0599 14.4595 15.0471 15.5723 15.0471 15.5723C15.0471 15.5723 15.2563 18.6379 14.5584 19.0187C14.0793 19.2799 13.4222 18.7466 12.0114 16.3087C11.2884 15.0599 10.7426 13.6795 10.7426 13.6795C10.7426 13.6795 10.6374 13.4215 10.4497 13.2835C10.2219 13.1164 9.90358 13.0631 9.90358 13.0631L6.52646 13.0853C6.52646 13.0853 6.01949 13.0994 5.83338 13.3198C5.66782 13.5159 5.82023 13.9214 5.82023 13.9214C5.82023 13.9214 8.46417 20.1071 11.4579 23.2243C14.2029 26.0823 17.3201 25.8946 17.3201 25.8946Z" fill="white"/>
</svg>
