<svg width="36" height="36" viewBox="0 0 36 36" fill="none" xmlns="http://www.w3.org/2000/svg">
<path d="M18 36C27.9411 36 36 27.9411 36 18C36 8.05887 27.9411 0 18 0C8.05887 0 0 8.05887 0 18C0 27.9411 8.05887 36 18 36Z" fill="#F2994A"/>
<path d="M8.23653 17.6099L25.5915 10.9184C26.397 10.6274 27.1005 11.1149 26.8395 12.3329L26.841 12.3314L23.886 26.2529C23.667 27.2399 23.0805 27.4799 22.26 27.0149L17.76 23.6984L15.5895 25.7894C15.3495 26.0294 15.147 26.2319 14.682 26.2319L15.0015 21.6524L23.3415 14.1179C23.7045 13.7984 23.2605 13.6184 22.782 13.9364L12.4755 20.4254L8.03253 19.0394C7.06803 18.7334 7.04703 18.0749 8.23653 17.6099Z" fill="white"/>
</svg>
