<svg width="107" height="107" viewBox="0 0 107 107" fill="none" xmlns="http://www.w3.org/2000/svg">
<path d="M87.4781 70.3639C84.8636 70.3639 82.3798 71.388 80.506 73.2399C78.6322 75.1137 77.5864 77.5539 77.5864 80.1685C77.5864 82.783 78.6105 85.2232 80.506 87.097C82.4015 88.9489 84.8636 89.973 87.4781 89.973C92.8379 89.973 97.1955 85.5718 97.1955 80.1685C97.1955 74.7651 92.8379 70.3639 87.4781 70.3639ZM87.4781 85.6154C84.4714 85.6154 81.944 83.1316 81.944 80.1685C81.944 77.2053 84.4714 74.7215 87.4781 74.7215C90.4413 74.7215 92.8379 77.1617 92.8379 80.1685C92.8379 83.1752 90.4413 85.6154 87.4781 85.6154ZM90.0055 37.704C89.6133 37.3336 89.0904 37.1375 88.5457 37.1375H77.3686C76.1702 37.1375 75.1898 38.118 75.1898 39.3163V57.1823C75.1898 58.3806 76.1702 59.3611 77.3686 59.3611H95.1038C96.3022 59.3611 97.2826 58.3806 97.2826 57.1823V45.2208C97.2826 44.6107 97.0212 44.0225 96.5636 43.6085L90.0055 37.704ZM92.9251 55.0035H79.5473V41.4733H87.696L92.9251 46.1794V55.0035ZM34.2722 70.3639C31.6577 70.3639 29.1739 71.388 27.3001 73.2399C25.4264 75.1137 24.3806 77.5539 24.3806 80.1685C24.3806 82.783 25.4046 85.2232 27.3001 87.097C29.1957 88.9489 31.6577 89.973 34.2722 89.973C39.632 89.973 43.9896 85.5718 43.9896 80.1685C43.9896 74.7651 39.632 70.3639 34.2722 70.3639ZM34.2722 85.6154C31.2655 85.6154 28.7381 83.1316 28.7381 80.1685C28.7381 77.2053 31.2655 74.7215 34.2722 74.7215C37.2354 74.7215 39.632 77.1617 39.632 80.1685C39.632 83.1752 37.2354 85.6154 34.2722 85.6154ZM19.7398 73.0438H15.3604V67.2483C15.3604 66.0499 14.38 65.0695 13.1816 65.0695C11.9833 65.0695 11.0029 66.0499 11.0029 67.2483V75.2226C11.0029 76.4209 11.9833 77.4014 13.1816 77.4014H19.7398C20.9381 77.4014 21.9185 76.4209 21.9185 75.2226C21.9185 74.0243 20.9381 73.0438 19.7398 73.0438ZM30.7862 61.1695C30.7862 59.9711 29.8057 58.9907 28.6074 58.9907H2.17878C0.980452 58.9907 0 59.9711 0 61.1695C0 62.3678 0.980452 63.3483 2.17878 63.3483H28.6074C29.8057 63.3483 30.7862 62.3896 30.7862 61.1695ZM6.60171 53.3041L33.0303 53.4566C34.2287 53.4566 35.2091 52.4979 35.2309 51.2996C35.2527 50.0795 34.2722 49.099 33.0739 49.099L6.64529 48.9465C6.6235 48.9465 6.6235 48.9465 6.6235 48.9465C5.42517 48.9465 4.44472 49.9052 4.44472 51.1035C4.42293 52.3236 5.40338 53.3041 6.60171 53.3041ZM11.0464 43.4124H37.4751C38.6734 43.4124 39.6538 42.4319 39.6538 41.2336C39.6538 40.0353 38.6734 39.0548 37.4751 39.0548H11.0464C9.8481 39.0548 8.86764 40.0353 8.86764 41.2336C8.86764 42.4319 9.8481 43.4124 11.0464 43.4124ZM106.194 40.471L90.5938 27.5509C90.2016 27.224 89.7223 27.0497 89.1993 27.0497H70.854V19.2061C70.854 18.0078 69.8736 17.0273 68.6752 17.0273H13.1816C11.9833 17.0273 11.0029 18.0078 11.0029 19.2061V35.1548C11.0029 36.3531 11.9833 37.3336 13.1816 37.3336C14.38 37.3336 15.3604 36.3531 15.3604 35.1548V21.3849H66.5182V73.0438H48.6522C47.4539 73.0438 46.4734 74.0243 46.4734 75.2226C46.4734 76.4209 47.4539 77.4014 48.6522 77.4014H75.2551C76.4535 77.4014 77.4339 76.4209 77.4339 75.2226C77.4339 74.0243 76.4535 73.0438 75.2551 73.0438H70.8758V31.4073H88.4368L102.642 43.1727L102.49 73.0003H100.224C99.0257 73.0003 98.0452 73.9807 98.0452 75.179C98.0452 76.3774 99.0257 77.3578 100.224 77.3578H104.647C105.845 77.3578 106.826 76.3992 106.826 75.2008L107 42.1705C106.978 41.5168 106.695 40.885 106.194 40.471Z" fill="#F2C94C"/>
</svg>
