<svg width="88" height="88" viewBox="0 0 88 88" fill="none" xmlns="http://www.w3.org/2000/svg">
<g clip-path="url(#clip0_42_2)">
<path d="M16.5 36.6667H56.8333C57.3196 36.6667 57.7859 36.4735 58.1297 36.1297C58.4735 35.7859 58.6667 35.3196 58.6667 34.8333C58.6667 34.3471 58.4735 33.8808 58.1297 33.537C57.7859 33.1932 57.3196 33 56.8333 33H16.5C16.0138 33 15.5474 33.1932 15.2036 33.537C14.8598 33.8808 14.6667 34.3471 14.6667 34.8333C14.6667 35.3196 14.8598 35.7859 15.2036 36.1297C15.5474 36.4735 16.0138 36.6667 16.5 36.6667Z" fill="#F2C94C"/>
<path d="M45.8333 42.1665H16.5C16.0138 42.1665 15.5474 42.3597 15.2036 42.7035C14.8598 43.0473 14.6667 43.5136 14.6667 43.9998C14.6667 44.4861 14.8598 44.9524 15.2036 45.2962C15.5474 45.64 16.0138 45.8332 16.5 45.8332H45.8333C46.3196 45.8332 46.7859 45.64 47.1297 45.2962C47.4735 44.9524 47.6667 44.4861 47.6667 43.9998C47.6667 43.5136 47.4735 43.0473 47.1297 42.7035C46.7859 42.3597 46.3196 42.1665 45.8333 42.1665Z" fill="#F2C94C"/>
<path d="M16.5 27.5002H56.8333C57.3196 27.5002 57.7859 27.307 58.1297 26.9632C58.4735 26.6194 58.6667 26.1531 58.6667 25.6668C58.6667 25.1806 58.4735 24.7143 58.1297 24.3705C57.7859 24.0267 57.3196 23.8335 56.8333 23.8335H16.5C16.0138 23.8335 15.5474 24.0267 15.2036 24.3705C14.8598 24.7143 14.6667 25.1806 14.6667 25.6668C14.6667 26.1531 14.8598 26.6194 15.2036 26.9632C15.5474 27.307 16.0138 27.5002 16.5 27.5002Z" fill="#F2C94C"/>
<path d="M16.5 18.3332H56.8333C57.3196 18.3332 57.7859 18.14 58.1297 17.7962C58.4735 17.4524 58.6667 16.9861 58.6667 16.4998C58.6667 16.0136 58.4735 15.5473 58.1297 15.2035C57.7859 14.8597 57.3196 14.6665 56.8333 14.6665H16.5C16.0138 14.6665 15.5474 14.8597 15.2036 15.2035C14.8598 15.5473 14.6667 16.0136 14.6667 16.4998C14.6667 16.9861 14.8598 17.4524 15.2036 17.7962C15.5474 18.14 16.0138 18.3332 16.5 18.3332Z" fill="#F2C94C"/>
<path d="M42.1667 73.3332C41.2133 73.3332 40.4433 69.6665 37.0333 69.6665C33.6233 69.6665 32.835 73.3332 31.8817 73.3332C30.9283 73.3332 30.1767 69.6665 26.7667 69.6665C23.3567 69.6665 22.5683 73.3332 21.6333 73.3332C20.6983 73.3332 19.9283 69.6665 16.5 69.6665C16.0138 69.6665 15.5474 69.8597 15.2036 70.2035C14.8598 70.5473 14.6667 71.0136 14.6667 71.4998C14.6667 71.9861 14.8598 72.4524 15.2036 72.7962C15.5474 73.14 16.0138 73.3332 16.5 73.3332C17.4533 73.3332 18.205 76.9998 21.6333 76.9998C25.0617 76.9998 25.8133 73.3332 26.7667 73.3332C27.72 73.3332 28.4717 76.9998 31.8817 76.9998C35.2917 76.9998 36.08 73.3332 37.0333 73.3332C37.9867 73.3332 38.7383 76.9998 42.1667 76.9998C42.6529 76.9998 43.1192 76.8067 43.463 76.4629C43.8068 76.1191 44 75.6527 44 75.1665C44 74.6803 43.8068 74.214 43.463 73.8701C43.1192 73.5263 42.6529 73.3332 42.1667 73.3332Z" fill="#F2C94C"/>
<path d="M82.5 18.3333C82.9863 18.3333 83.4526 18.1402 83.7964 17.7964C84.1402 17.4525 84.3334 16.9862 84.3334 16.5V9.16667C84.3334 6.73551 83.3676 4.40394 81.6485 2.68485C79.9294 0.965771 77.5978 0 75.1667 0L12.8334 0C10.4022 0 8.07063 0.965771 6.35154 2.68485C4.63246 4.40394 3.66669 6.73551 3.66669 9.16667V86.1667C3.66669 86.6529 3.85984 87.1192 4.20366 87.463C4.54747 87.8068 5.01379 88 5.50002 88H67.8334C68.3196 88 68.7859 87.8068 69.1297 87.463C69.4735 87.1192 69.6667 86.6529 69.6667 86.1667V56.8333L83.4717 33C83.9165 32.2696 84.2108 31.4576 84.3373 30.6118C84.4638 29.7661 84.4199 28.9035 84.2083 28.075C83.9967 27.2464 83.6216 26.4684 83.105 25.7869C82.5885 25.1053 81.9409 24.5339 81.2004 24.1062C80.4598 23.6785 79.6413 23.4031 78.7928 23.2963C77.9443 23.1895 77.083 23.2533 76.2596 23.4841C75.4361 23.7149 74.6671 24.1079 73.9977 24.6402C73.3283 25.1724 72.7721 25.8331 72.3617 26.5833L69.6667 31.1667V18.3333H82.5ZM80.6667 9.16667V14.6667H69.6667V9.16667C69.6667 7.70797 70.2462 6.30903 71.2776 5.27758C72.3091 4.24613 73.708 3.66667 75.1667 3.66667C76.6254 3.66667 78.0243 4.24613 79.0558 5.27758C80.0872 6.30903 80.6667 7.70797 80.6667 9.16667ZM66 84.3333H7.33335V9.16667C7.33335 7.70797 7.91282 6.30903 8.94427 5.27758C9.97572 4.24613 11.3747 3.66667 12.8334 3.66667H67.8334C65.285 7.00333 66 6.63667 66 37.455L51.7367 62.1683C51.425 62.7 51.5534 62.1683 50.875 73.1683C50.86 73.4182 50.8963 73.6684 50.9817 73.9037C51.0671 74.139 51.1997 74.3543 51.3715 74.5364C51.5433 74.7185 51.7505 74.8634 51.9804 74.9624C52.2103 75.0613 52.4581 75.1121 52.7084 75.1117C53.4967 75.1117 53.1117 75.1117 62.2784 69.1533C62.755 68.8417 62.5717 69.025 65.945 63.085L66 84.3333ZM55 64.6067C56.5788 64.8368 58.0092 65.6636 58.9967 66.9167L54.6884 69.7583L55 64.6067ZM61.2334 63.91C59.9375 62.5597 58.2843 61.6059 56.4667 61.16L71.335 35.4933L76.1017 38.2433L61.2334 63.91ZM75.5334 28.27C75.898 27.6379 76.4989 27.1766 77.2037 26.9875C77.9085 26.7984 78.6596 26.897 79.2917 27.2617C79.9238 27.6263 80.3851 28.2272 80.5742 28.932C80.7633 29.6368 80.6647 30.3879 80.3 31.02L78.0084 34.9983L73.3334 32.2483L75.5334 28.27Z" fill="#F2C94C"/>
</g>
<defs>
<clipPath id="clip0_42_2">
<rect width="88" height="88" fill="white"/>
</clipPath>
</defs>
</svg>
