<svg width="88" height="82" viewBox="0 0 88 82" fill="none" xmlns="http://www.w3.org/2000/svg">
<path d="M67.3285 19.8176C67.3285 22.4836 65.3876 24.1049 63.9704 25.2947C63.4337 25.7454 62.4347 26.5677 62.4373 26.8748C62.447 28.0797 61.4783 29.0419 60.2732 29.0419C60.2672 29.0419 60.2611 29.0419 60.255 29.0419C59.0584 29.0419 58.0834 28.1093 58.0737 26.9105C58.0545 24.5476 59.7789 23.1325 61.1646 21.9691C62.2519 21.0562 62.9649 20.4138 62.9649 19.8259C62.9649 18.6358 61.9966 17.6676 60.8065 17.6676C59.616 17.6676 58.6475 18.6358 58.6475 19.8259C58.6475 21.031 57.6708 22.0077 56.4657 22.0077C55.2606 22.0077 54.2839 21.031 54.2839 19.8259C54.2839 16.2298 57.2097 13.3039 60.8061 13.3039C64.4027 13.3037 67.3285 16.2213 67.3285 19.8176ZM60.3154 31.0559C59.1103 31.0559 58.1818 32.0327 58.1818 33.2378V33.2545C58.1818 34.4596 59.1105 35.4281 60.3154 35.4281C61.5202 35.4281 62.4972 34.4428 62.4972 33.2378C62.4972 32.0327 61.5205 31.0559 60.3154 31.0559ZM16.3375 46.2542C15.1324 46.2542 14.1556 47.231 14.1556 48.4361C14.1556 49.6412 15.1324 50.6179 16.3375 50.6179H16.5193C17.7244 50.6179 18.7011 49.6412 18.7011 48.4361C18.7011 47.231 17.7244 46.2542 16.5193 46.2542H16.3375ZM23.9202 46.2542C22.7152 46.2542 21.7384 47.231 21.7384 48.4361C21.7384 49.6412 22.7152 50.6179 23.9202 50.6179H24.1018C25.3069 50.6179 26.2836 49.6412 26.2836 48.4361C26.2836 47.231 25.3069 46.2542 24.1018 46.2542H23.9202ZM88 11.406V35.9638C88 41.7784 83.3377 46.4967 77.5231 46.4967H49.2281C48.6749 46.4967 48.2194 46.4935 47.8383 46.4855C47.439 46.4773 46.9896 46.4741 46.8143 46.4935C46.6318 46.6147 46.1842 47.0247 45.753 47.422C45.5821 47.5793 45.3886 47.7524 45.1799 47.943L37.1745 55.2395C36.536 55.822 35.5913 55.9728 34.8005 55.6242C34.0097 55.2753 33.4545 54.4923 33.4545 53.6281V30.4967H10.5988C7.18982 30.4967 4.36364 33.2901 4.36364 36.6986V61.2564C4.36364 64.6652 7.19006 67.3452 10.5988 67.3452H42.2046C42.7488 67.3452 43.2579 67.5951 43.6599 67.9621L50.1818 73.9752V53.2385C50.1818 52.0334 51.1585 51.0567 52.3636 51.0567C53.5687 51.0567 54.5455 52.0334 54.5455 53.2385V78.9204C54.5455 79.7847 54.0509 80.5561 53.2599 80.9049C52.977 81.0298 52.6928 81.079 52.3954 81.079C51.8611 81.079 51.3341 80.8596 50.9241 80.4853L41.3588 71.7085H10.5988C4.784 71.7085 0 67.071 0 61.2562V36.6986C0 30.8841 4.784 26.133 10.5988 26.133H33.4545V11.406C33.4545 5.5912 38.2752 0.920898 44.0899 0.920898H77.5234C83.3377 0.920898 88 5.5912 88 11.406ZM83.6364 11.406C83.6364 7.99726 80.9316 5.28454 77.5231 5.28454H44.0899C40.6812 5.28454 37.8182 7.99726 37.8182 11.406V28.3352V48.6828L42.2048 44.7185C42.408 44.533 42.6356 44.3633 42.8017 44.2101C44.8049 42.3643 45.3173 42.0693 47.9302 42.1231C48.2865 42.1306 48.711 42.1333 49.2281 42.1333H77.5231C80.9316 42.1333 83.6364 39.3725 83.6364 35.9641V11.406Z" fill="#F2C94C"/>
</svg>
