<svg width="88" height="88" viewBox="0 0 88 88" fill="none" xmlns="http://www.w3.org/2000/svg">
<path d="M85.8536 2.53032C84.864 0.919659 83.0936 -0.0484812 81.2271 0.00187283C79.2969 0.0542409 77.5909 1.19224 76.5469 3.12181L59.315 34.9684C59.1096 34.959 58.9035 34.9536 58.6954 34.9536C54.3911 34.9536 50.2117 37.0651 48.0485 40.3327C46.5036 42.6645 43.9833 45.1681 40.9748 47.583C40.9137 47.6253 40.8559 47.6723 40.8009 47.7227C34.1192 53.0461 25.1072 57.9117 19.0157 59.5169C18.2692 59.7143 17.5676 60.4367 17.6844 61.6063C17.8596 63.3653 20.1282 68.2953 24.8185 73.3307C24.8212 73.3334 24.8239 73.3368 24.8266 73.3395C25.4664 74.0256 26.1499 74.7138 26.8804 75.3959C29.8398 78.16 34.036 81.2605 39.6871 83.709C39.8213 83.7882 39.963 83.848 40.1094 83.8876C45.0615 85.9776 51.1047 87.5621 58.3885 87.9972C58.4234 87.9992 58.4577 87.9999 58.4919 87.9999C59.2217 87.9999 59.879 87.54 60.1241 86.8444C60.4181 86.0092 66.0168 70.0322 68.5171 56.495C68.5191 56.4823 68.5218 56.4695 68.5238 56.4561C69.1421 53.1005 69.5705 49.8946 69.6786 47.1091C69.7773 44.5853 69.3274 42.3388 68.3653 40.4757L85.8509 8.16526C86.8822 6.26054 86.8835 4.20677 85.8536 2.53032ZM58.6954 38.4153C60.9304 38.4153 62.8895 39.1733 64.2121 40.5489C64.4733 40.8202 64.709 41.1142 64.9191 41.4291C64.9312 41.4472 64.9433 41.4654 64.956 41.4835C65.8826 42.8981 66.3075 44.7384 66.2196 46.9741C66.1451 48.8936 65.9034 51.0461 65.5455 53.3247L50.0519 43.4742C50.3695 43.0619 50.6649 42.651 50.9348 42.2442C52.475 39.9185 55.521 38.4153 58.6954 38.4153ZM57.2868 84.4489C51.9593 84.0158 47.3778 82.9269 43.467 81.4901C45.9692 78.4756 49.0099 74.311 52.2695 68.1188C52.7146 67.2728 52.3897 66.2261 51.5437 65.781C50.6978 65.3352 49.6511 65.6608 49.206 66.5061C45.7799 73.0152 42.615 77.1731 40.1087 80.1023C35.4365 77.9472 31.9144 75.3375 29.3799 72.993C29.2517 72.8742 29.1268 72.756 29.0019 72.6379C33.6446 70.2752 38.5652 67.4823 43.7395 63.1841C44.4747 62.5731 44.5754 61.4821 43.9645 60.7463C43.3535 60.0118 42.2625 59.9104 41.5273 60.5213C36.2543 64.9008 31.3874 67.5749 26.495 70.0255C23.6664 66.784 22.1645 63.9239 21.52 62.3878C27.5934 60.4327 35.6252 56.0707 42.0409 51.136L47.0038 54.4386C47.2986 54.6353 47.6322 54.7286 47.9612 54.7286C48.5212 54.7286 49.0704 54.4574 49.404 53.9565C49.9338 53.1609 49.7176 52.086 48.922 51.557L44.8494 48.8466C45.8927 47.9416 46.8669 47.0278 47.7518 46.1141L64.8902 57.0107C64.5982 58.4964 64.2699 60.0104 63.9181 61.5278L59.9958 58.9167C59.2002 58.387 58.126 58.6025 57.5963 59.3981C57.0666 60.1937 57.2821 61.2686 58.0777 61.7983L63.0473 65.1069C60.9049 73.5483 58.2966 81.4686 57.2868 84.4489ZM82.8069 6.51701L66.0316 37.5143C65.1105 36.7234 64.043 36.1044 62.8694 35.6733L79.5916 4.76939C79.9072 4.18596 80.4637 3.4857 81.3218 3.4622C81.9475 3.44944 82.5645 3.79051 82.9035 4.34239C83.2795 4.95402 83.246 5.70597 82.8069 6.51701Z" fill="#F2C94C"/>
<path d="M14.0099 59.1879C14.0099 55.3227 10.8685 52.1772 7.00732 52.1772C3.14349 52.1772 6.10352e-05 55.3227 6.10352e-05 59.1879C6.10352e-05 63.0537 3.14349 66.1992 7.00732 66.1992C10.8685 66.1992 14.0099 63.0537 14.0099 59.1879ZM3.46173 59.1879C3.46173 57.2314 5.05225 55.6396 7.00732 55.6396C8.95972 55.6396 10.5482 57.2314 10.5482 59.1879C10.5482 61.145 8.95972 62.7368 7.00732 62.7368C5.05225 62.7368 3.46173 61.145 3.46173 59.1879Z" fill="#F2C94C"/>
<path d="M11.5681 70.6611C8.88251 70.6611 6.69781 72.8472 6.69781 75.5341C6.69781 78.223 8.88251 80.4117 11.5681 80.4117C14.2536 80.4117 16.439 78.2236 16.439 75.5341C16.4383 72.8472 14.2536 70.6611 11.5681 70.6611ZM11.5681 76.9493C10.7913 76.9493 10.1595 76.3142 10.1595 75.5341C10.1595 74.7559 10.7913 74.1235 11.5681 74.1235C12.3449 74.1235 12.9766 74.7559 12.9766 75.5341C12.9766 76.3142 12.3449 76.9493 11.5681 76.9493Z" fill="#F2C94C"/>
<path d="M18.5921 49.8342C21.1655 49.8342 23.2582 47.7395 23.2582 45.166C23.2582 42.5892 21.1655 40.4932 18.5921 40.4932C16.0193 40.4932 13.9266 42.5892 13.9266 45.166C13.926 47.7395 16.0193 49.8342 18.5921 49.8342ZM18.5921 43.9548C19.2561 43.9548 19.7966 44.498 19.7966 45.166C19.7966 45.8307 19.2561 46.3718 18.5921 46.3718C17.9281 46.3718 17.3883 45.8307 17.3883 45.166C17.3883 44.498 17.9281 43.9548 18.5921 43.9548Z" fill="#F2C94C"/>
<path d="M54.4501 55.2303L54.4206 55.2108C53.6223 54.6844 52.5487 54.9053 52.023 55.7036C51.4967 56.5019 51.7176 57.5754 52.5158 58.1011L52.5447 58.1206C52.8381 58.3139 53.1691 58.4066 53.4954 58.4066C54.058 58.4066 54.6099 58.1327 54.9422 57.6278C55.4686 56.8295 55.2484 55.756 54.4501 55.2303Z" fill="#F2C94C"/>
</svg>
