<svg width="88" height="88" viewBox="0 0 88 88" fill="none" xmlns="http://www.w3.org/2000/svg">
<g clip-path="url(#clip0_42_62)">
<path d="M59.785 26.666C58.8364 26.666 58.0663 27.4341 58.0663 28.3841C58.0663 29.3334 58.8364 30.1028 59.785 30.1028C60.7357 30.1028 61.5038 29.3334 61.5038 28.3841C61.5038 27.4341 60.7357 26.666 59.785 26.666Z" fill="#F2C94C"/>
<path d="M28.556 57.8945C27.6053 57.8945 26.8373 58.6646 26.8373 59.6133C26.8373 60.564 27.6053 61.332 28.556 61.332C29.5047 61.332 30.2748 60.564 30.2748 59.6133C30.2748 58.6646 29.5047 57.8945 28.556 57.8945Z" fill="#F2C94C"/>
<path d="M86.0335 10.5738C85.4534 10.4389 84.8438 10.6141 84.4248 11.0371L77.2994 18.2189H73.8834L70.123 14.3229V10.8592L77.1463 3.73106C77.5619 3.30943 77.7311 2.70317 77.5935 2.12645C77.4565 1.5504 77.0322 1.0858 76.4709 0.896465C74.7065 0.301616 72.8602 0.000163061 70.9823 0.000163061C65.3843 0.000163061 60.2986 2.61052 57.0289 7.16185C53.9687 11.4225 53.0254 16.6438 54.3769 21.641L41.7166 34.3013L20.6243 13.1607V9.01152C20.6243 8.40794 20.3074 7.848 19.7898 7.53782L7.63702 0.245219C6.96026 -0.16097 6.09485 -0.0542192 5.5376 0.503703L0.676758 5.36387C0.119507 5.92179 0.0127564 6.78721 0.418274 7.46397L7.70953 19.6167C8.01971 20.1344 8.57898 20.4506 9.18255 20.4513L13.3304 20.4526L34.4247 41.5932L21.8127 54.2052C16.8155 52.8544 11.5915 53.7991 7.32886 56.8613C2.78021 60.1289 0.171875 65.2133 0.171875 70.8113C0.171875 72.6885 0.473328 74.5355 1.06818 76.2992C1.25818 76.8639 1.72748 77.2902 2.30756 77.4245C2.8883 77.5594 3.49725 77.3842 3.91687 76.9612L11.0416 69.7801H14.4764L18.3899 73.6936V77.1284L11.2088 84.2532C10.7858 84.6728 10.6106 85.2817 10.7455 85.8625C10.8798 86.4426 11.3061 86.9118 11.8708 87.1019C13.6345 87.6967 15.4815 87.9982 17.3587 87.9982C22.9567 87.9982 28.0405 85.3891 31.3088 80.8405C34.371 76.5779 35.3156 71.3545 33.9648 66.3573L44.094 56.2281L46.4143 58.7485L45.3495 59.8127C44.6781 60.4841 44.6781 61.5724 45.3495 62.2438C46.0209 62.9145 47.1085 62.9145 47.7806 62.2438L48.7447 61.2796L70.5151 84.9272C70.5312 84.9447 70.548 84.9615 70.5647 84.9783C74.5931 89.0066 81.1196 89.0079 85.1499 84.9776C89.1689 80.9566 89.1689 74.414 85.1499 70.3931C85.1325 70.3756 85.1143 70.3588 85.0962 70.342L61.4117 48.6133L62.3651 47.6599C63.0365 46.9892 63.0365 45.9009 62.3651 45.2295C61.6937 44.5581 60.6061 44.5581 59.934 45.2295L58.8766 46.2876L56.3515 43.97L66.5297 33.7917C67.9765 34.1784 69.4697 34.3745 70.9823 34.3745C80.4596 34.3745 88.1692 26.6643 88.1692 17.1877C88.1692 15.3098 87.8677 13.4635 87.2729 11.6991C87.0829 11.1344 86.6136 10.7081 86.0335 10.5738ZM15.2599 17.52C14.9377 17.1971 14.5006 17.0326 14.0441 17.0326L10.1567 17.0312L4.05652 6.84629L7.01935 3.88346L17.1868 9.98503V13.8724C17.1868 14.3276 17.3674 14.764 17.689 15.0862L39.2862 36.7324L36.8551 39.1628L15.2599 17.52ZM58.9786 51.0464L82.7437 72.8483C85.3983 75.5312 85.3903 79.875 82.7188 82.5478C80.0414 85.2253 75.7069 85.2334 73.0187 82.5713L51.1771 58.8465L58.9786 51.0464ZM56.4435 48.72L48.8467 56.3154L46.5264 53.795L53.9184 46.4024L56.4435 48.72ZM70.9823 30.937C69.4791 30.937 68.0007 30.696 66.5895 30.2206C65.9711 30.0132 65.2876 30.173 64.8257 30.6342C56.2091 39.2508 37.6426 57.8166 30.8059 64.654C30.344 65.116 30.1835 65.7994 30.3923 66.4184C31.821 70.6609 31.1376 75.1861 28.5165 78.8351C25.9028 82.4733 21.8355 84.5607 17.3587 84.5607C16.8558 84.5607 16.3556 84.5331 15.8602 84.4801L21.3192 79.0633C21.6442 78.7411 21.8274 78.302 21.8274 77.8434V72.9812C21.8274 72.5254 21.6462 72.0883 21.3239 71.766L16.4033 66.8454C16.081 66.5232 15.644 66.3419 15.1881 66.3419H10.3259C9.86737 66.3419 9.42828 66.5252 9.10534 66.8501L3.68927 72.3092C3.63556 71.8137 3.6087 71.3135 3.6087 70.8107C3.6087 66.3332 5.69537 62.2666 9.33429 59.6529C12.9826 57.0318 17.5084 56.3476 21.7516 57.777C22.3699 57.9858 23.0534 57.8254 23.5153 57.3634C23.61 57.2695 57.511 23.3678 57.5351 23.3436C57.9971 22.8817 58.1568 22.1989 57.9487 21.5799C56.5193 17.3374 57.2015 12.8136 59.8205 9.16728C62.4363 5.52568 66.5042 3.43766 70.9817 3.43766C71.5 3.43766 72.0149 3.46653 72.5252 3.52293L67.1796 8.94841C66.8627 9.27 66.6855 9.70304 66.6855 10.1542V15.0164C66.6855 15.4622 66.858 15.8899 67.1675 16.2101L71.9162 21.1307C72.2398 21.4664 72.6863 21.6557 73.1529 21.6557H78.0151C78.473 21.6557 78.9121 21.4731 79.235 21.1475L84.6511 15.6891C84.7048 16.1846 84.7317 16.6848 84.7317 17.1877C84.7317 24.769 78.5636 30.937 70.9823 30.937Z" fill="#F2C94C"/>
<path d="M53.7089 32.0299L32.201 53.5378C31.5303 54.2085 31.5303 55.2968 32.201 55.9682C32.8724 56.6396 33.9607 56.6396 34.6321 55.9682L56.14 34.4603C56.8114 33.7896 56.8114 32.7013 56.14 32.0299C55.4686 31.3585 54.3803 31.3585 53.7089 32.0299Z" fill="#F2C94C"/>
<path d="M75.4283 77.6874C76.0996 78.3567 77.188 78.3567 77.8593 77.6833C78.5294 77.0113 78.5274 75.923 77.8553 75.2529L62.3631 59.8104C61.691 59.1403 60.602 59.1423 59.9326 59.8144C59.2619 60.4871 59.2639 61.5748 59.936 62.2448L75.4283 77.6874Z" fill="#F2C94C"/>
</g>
<defs>
<clipPath id="clip0_42_62">
<rect width="88" height="88" fill="white"/>
</clipPath>
</defs>
</svg>
