<svg width="88" height="88" viewBox="0 0 88 88" fill="none" xmlns="http://www.w3.org/2000/svg">
<g clip-path="url(#clip0_21_405)">
<path d="M69.5477 54.5131C67.7461 52.6372 65.5731 51.6343 63.27 51.6343C60.9855 51.6343 58.7939 52.6186 56.9181 54.4945L51.049 60.345C50.5661 60.085 50.0832 59.8435 49.6189 59.6021C48.9502 59.2678 48.3188 58.952 47.7801 58.6177C42.2825 55.126 37.2864 50.5756 32.4946 44.688C30.1729 41.7534 28.6128 39.2832 27.4798 36.7759C29.0028 35.3829 30.4144 33.9342 31.7888 32.5412C32.3088 32.0212 32.8289 31.4826 33.3489 30.9625C37.2492 27.0622 37.2492 22.0103 33.3489 18.11L28.2785 13.0396C27.7027 12.4638 27.1084 11.8695 26.5512 11.2751C25.4368 10.1236 24.2667 8.93494 23.0595 7.82056C21.2579 6.03755 19.1034 5.09033 16.8375 5.09033C14.5716 5.09033 12.38 6.03755 10.5227 7.82056C10.5041 7.83914 10.5041 7.83914 10.4856 7.85771L4.17073 14.2283C1.79339 16.6056 0.437558 19.503 0.14039 22.8647C-0.305362 28.288 1.29192 33.3399 2.51773 36.6459C5.52656 44.7623 10.0212 52.2843 16.7261 60.345C24.8611 70.0587 34.649 77.7293 45.83 83.1341C50.1018 85.1585 55.8037 87.5545 62.1742 87.9631C62.5643 87.9816 62.9729 88.0002 63.3443 88.0002C67.6347 88.0002 71.2378 86.4587 74.0609 83.3941C74.0795 83.357 74.1167 83.3384 74.1352 83.3012C75.101 82.1311 76.2154 81.0725 77.3855 79.9395C78.1842 79.178 79.0014 78.3794 79.8 77.5436C81.6387 75.6306 82.6045 73.4018 82.6045 71.1174C82.6045 68.8143 81.6201 66.6041 79.7443 64.7468L69.5477 54.5131ZM76.1968 74.0705C76.1783 74.0705 76.1783 74.089 76.1968 74.0705C75.4725 74.8505 74.7296 75.5563 73.9309 76.3364C72.7237 77.4879 71.4979 78.6951 70.3463 80.051C68.4705 82.0569 66.2603 83.0041 63.3629 83.0041C63.0843 83.0041 62.7871 83.0041 62.5085 82.9855C56.9924 82.6326 51.8662 80.4781 48.0216 78.6394C37.5093 73.5504 28.2785 66.3255 20.6078 57.169C14.2744 49.5355 10.0398 42.4778 7.23528 34.9C5.50799 30.2753 4.87651 26.6722 5.1551 23.2733C5.34083 21.1003 6.17662 19.2987 7.71818 17.7571L14.0516 11.4237C14.9616 10.5694 15.9274 10.105 16.8747 10.105C18.0448 10.105 18.992 10.8108 19.5863 11.4052C19.6049 11.4237 19.6235 11.4423 19.642 11.4609C20.775 12.5195 21.8522 13.6153 22.9852 14.7854C23.5609 15.3798 24.1553 15.9741 24.7496 16.587L29.82 21.6575C31.7888 23.6262 31.7888 25.4463 29.82 27.4151C29.2814 27.9537 28.7614 28.4923 28.2228 29.0124C26.6626 30.6096 25.1768 32.0955 23.5609 33.5442C23.5238 33.5813 23.4867 33.5999 23.4681 33.637C21.8708 35.2343 22.168 36.7944 22.5023 37.8531C22.5209 37.9088 22.5394 37.9645 22.558 38.0203C23.8767 41.2148 25.734 44.2236 28.5571 47.8082L28.5757 47.8268C33.7018 54.1416 39.1066 59.0635 45.0685 62.8338C45.83 63.3167 46.61 63.7067 47.353 64.0782C48.0216 64.4125 48.6531 64.7282 49.1917 65.0626C49.266 65.0997 49.3403 65.1554 49.4146 65.1926C50.046 65.5083 50.6404 65.6569 51.2533 65.6569C52.7949 65.6569 53.7607 64.6911 54.0764 64.3754L60.4284 58.0234C61.0598 57.3919 62.0628 56.6304 63.2329 56.6304C64.3844 56.6304 65.3316 57.3548 65.9074 57.9862C65.926 58.0048 65.926 58.0048 65.9445 58.0234L76.1783 68.2571C78.0913 70.1516 78.0913 72.1017 76.1968 74.0705Z" fill="#F2C94C"/>
<path d="M47.5573 20.933C52.4234 21.7502 56.8438 24.0532 60.3727 27.5821C63.9015 31.111 66.186 35.5313 67.0218 40.3975C67.2261 41.6233 68.2848 42.4777 69.492 42.4777C69.6406 42.4777 69.7706 42.4591 69.9192 42.4405C71.2936 42.2176 72.2037 40.9175 71.9808 39.5431C70.9778 33.6555 68.1919 28.2879 63.9387 24.0347C59.6855 19.7814 54.3179 16.9955 48.4302 15.9926C47.0558 15.7697 45.7743 16.6798 45.5328 18.0356C45.2914 19.3914 46.1829 20.7101 47.5573 20.933Z" fill="#F2C94C"/>
<path d="M87.8979 38.8187C86.2449 29.1236 81.6759 20.3014 74.6553 13.2808C67.6347 6.26018 58.8126 1.69122 49.1174 0.038226C47.7616 -0.203223 46.4801 0.725427 46.2386 2.08126C46.0158 3.45566 46.9258 4.7372 48.3002 4.97865C56.9553 6.44591 64.8488 10.5505 71.1265 16.8097C77.4041 23.0873 81.4902 30.9809 82.9575 39.6359C83.1618 40.8617 84.2204 41.7161 85.4277 41.7161C85.5763 41.7161 85.7063 41.6975 85.8549 41.6789C87.2107 41.4746 88.1393 40.1745 87.8979 38.8187Z" fill="#F2C94C"/>
</g>
<defs>
<clipPath id="clip0_21_405">
<rect width="88" height="88" fill="white"/>
</clipPath>
</defs>
</svg>
