<svg width="88" height="88" viewBox="0 0 88 88" fill="none" xmlns="http://www.w3.org/2000/svg">
<path d="M69.7694 11.5296H61.8082V7.96805C61.8082 6.81574 60.5512 6.29202 59.3989 6.29202H53.2185C51.752 2.10186 48.0856 0.00678264 43.8954 0.00678264C39.7514 -0.14901 35.9821 2.39199 34.5723 6.29202H28.4966C27.3443 6.29202 26.192 6.81574 26.192 7.96805V11.5296H18.2305C13.5126 11.58 9.65291 15.3017 9.43115 20.0146V80.0385C9.43115 84.6477 13.6213 87.9998 18.2305 87.9998H69.7694C74.3786 87.9998 78.5688 84.6477 78.5688 80.0385V20.0148C78.347 15.3017 74.4873 11.58 69.7694 11.5296ZM30.382 10.4822H36.1435C37.1492 10.3595 37.957 9.59435 38.1339 8.59663C38.7543 5.89502 41.1244 3.95574 43.8954 3.88275C46.6407 3.96596 48.9752 5.91126 49.5521 8.59663C49.7399 9.62883 50.6011 10.4038 51.6471 10.4822H57.6182V18.8625H30.382V10.4822ZM74.3786 80.0387C74.3786 82.3433 72.074 83.8098 69.7694 83.8098H18.2305C15.9259 83.8098 13.6213 82.3433 13.6213 80.0387V20.0148C13.8351 17.616 15.8225 15.7639 18.2305 15.72H26.1918V21.0625C26.3025 22.2362 27.319 23.1142 28.4964 23.0529H59.3987C60.5977 23.1184 61.6461 22.2525 61.808 21.0625V15.7198H69.7692C72.1771 15.7639 74.1647 17.6158 74.3784 20.0146V80.0387H74.3786Z" fill="#F2C94C"/>
<path d="M35.934 46.8319C35.1482 46.0036 33.8437 45.9569 33.0008 46.7272L26.2965 53.1171L23.4682 50.1839C22.6824 49.3556 21.3779 49.3091 20.535 50.0793C19.7235 50.9294 19.7235 52.267 20.535 53.1171L24.8298 57.5168C25.2015 57.933 25.7385 58.1632 26.2963 58.1454C26.8489 58.1376 27.376 57.9116 27.7628 57.5168L35.9336 49.7651C36.7436 49.022 36.7978 47.7628 36.0545 46.953C36.0164 46.9107 35.9761 46.8704 35.934 46.8319Z" fill="#F2C94C"/>
<path d="M65.9983 51.3364H41.905C40.7479 51.3364 39.8099 52.2744 39.8099 53.4315C39.8099 54.5886 40.7479 55.5266 41.905 55.5266H65.9983C67.1554 55.5266 68.0934 54.5886 68.0934 53.4315C68.0934 52.2744 67.1554 51.3364 65.9983 51.3364Z" fill="#F2C94C"/>
<path d="M35.934 30.0711C35.1482 29.2428 33.8437 29.1961 33.0008 29.9665L26.2965 36.3564L23.4682 33.4232C22.6824 32.5949 21.3779 32.5482 20.535 33.3185C19.7235 34.1687 19.7235 35.5062 20.535 36.3564L24.8298 40.7561C25.2015 41.1723 25.7385 41.4025 26.2963 41.3846C26.8489 41.3768 27.376 41.1509 27.7628 40.7561L35.9336 33.0043C36.7436 32.2613 36.7978 31.0021 36.0545 30.1922C36.0164 30.1499 35.9761 30.1096 35.934 30.0711Z" fill="#F2C94C"/>
<path d="M65.9983 34.5757H41.905C40.7479 34.5757 39.8099 35.5137 39.8099 36.6708C39.8099 37.8279 40.7479 38.7659 41.905 38.7659H65.9983C67.1554 38.7659 68.0934 37.8279 68.0934 36.6708C68.0934 35.5137 67.1554 34.5757 65.9983 34.5757Z" fill="#F2C94C"/>
<path d="M35.934 63.592C35.1482 62.7638 33.8437 62.7172 33.0008 63.4874L26.2965 69.8773L23.4682 66.9441C22.6824 66.1158 21.3779 66.0693 20.535 66.8394C19.7235 67.6896 19.7235 69.0271 20.535 69.8773L24.8298 74.277C25.2015 74.6932 25.7385 74.9234 26.2963 74.9056C26.8489 74.8977 27.376 74.6718 27.7628 74.277L35.9336 66.5252C36.7436 65.7822 36.7978 64.523 36.0545 63.7132C36.0164 63.671 35.9761 63.6307 35.934 63.592Z" fill="#F2C94C"/>
<path d="M65.9983 68.0967H41.905C40.7479 68.0967 39.8099 69.0346 39.8099 70.1918C39.8099 71.3489 40.7479 72.2868 41.905 72.2868H65.9983C67.1554 72.2868 68.0934 71.3489 68.0934 70.1918C68.0934 69.0346 67.1554 68.0967 65.9983 68.0967Z" fill="#F2C94C"/>
</svg>
