<svg width="107" height="107" viewBox="0 0 107 107" fill="none" xmlns="http://www.w3.org/2000/svg">
<g clip-path="url(#clip0_42_14)">
<path d="M84.4855 65.9159C82.3856 61.5378 74.8732 55.461 67.6152 49.5894C63.567 46.3169 59.7417 43.2229 57.3031 40.7842C56.6922 40.169 55.7783 39.9728 54.9715 40.2626C53.4691 40.8066 52.5416 41.2256 51.8106 41.551C50.696 42.0503 50.3215 42.2198 48.819 42.3713C48.1546 42.4381 47.5573 42.7949 47.1872 43.3476C44.0351 48.06 40.7716 47.6588 38.5915 46.9278C37.896 46.696 37.7712 46.3971 37.7043 46.1119C37.2362 44.1547 39.5858 39.5983 42.6307 36.5531C49.8756 29.3039 53.6116 27.4893 61.5028 31.0159C70.4551 35.0194 79.4253 38.1538 79.5146 38.1849C80.6872 38.5905 81.9488 37.9753 82.3545 36.8117C82.7557 35.648 82.1449 34.3774 80.9812 33.9718C80.892 33.9406 72.1002 30.8688 63.3262 26.9409C53.1033 22.371 47.4946 25.3804 39.483 33.3966C36.4335 36.4461 32.2916 42.6164 33.3616 47.1418C33.8208 49.0678 35.1762 50.4945 37.1913 51.1586C42.2426 52.8261 46.8524 51.2299 50.2854 46.6736C51.7031 46.4552 52.4745 46.1342 53.6335 45.6126C54.0526 45.4254 54.543 45.207 55.194 44.9439C57.7443 47.338 61.186 50.1244 64.8106 53.0535C71.3644 58.3544 78.7965 64.3644 80.4684 67.8419C81.2933 69.5583 80.4059 70.6774 79.804 71.19C78.9213 71.948 77.7131 72.1887 77.0578 71.7294C76.3355 71.2345 75.3949 71.2034 74.6503 71.6491C73.9013 72.0949 73.4822 72.9375 73.5759 73.8025C73.7274 75.2203 72.43 76.0318 71.8683 76.3126C70.4415 77.0349 68.9525 76.9101 68.3951 76.3929C67.7709 75.8134 66.8748 75.6439 66.0813 75.9381C65.2878 76.2368 64.7348 76.968 64.6545 77.815C64.5208 79.2773 63.4374 80.6817 62.024 81.23C61.3419 81.4885 60.3522 81.6447 59.465 80.8332C58.9123 80.3339 58.1453 80.1421 57.4276 80.3159C56.701 80.4942 56.1169 81.0204 55.8628 81.7203C55.7781 81.9433 55.5863 82.4783 53.4998 82.4783C52.0152 82.4783 49.3445 81.4752 48.0384 80.6102C46.4735 79.5803 36.6607 72.2598 28.1855 65.1621C26.9951 64.1589 24.9354 62.0099 23.1164 60.1107C21.5024 58.4254 20.0267 56.8963 19.2688 56.2543C18.3191 55.4518 16.9148 55.5722 16.1256 56.5174C15.3321 57.4581 15.4479 58.867 16.3887 59.6605C17.0799 60.2447 18.4174 61.6578 19.893 63.1959C21.8815 65.2734 23.9366 67.4224 25.3189 68.5817C33.6203 75.5323 43.5981 83.0357 45.5864 84.3418C47.2271 85.4208 50.7625 86.9366 53.5 86.9366C55.6979 86.9366 57.3877 86.4327 58.5601 85.4475C60.1294 86.0584 61.9129 86.0628 63.6293 85.3941C65.6579 84.6093 67.3251 83.0267 68.2704 81.1097C70.0269 81.4842 72.0378 81.2211 73.8655 80.3028C75.6534 79.4023 76.9462 78.0246 77.5882 76.415C79.3627 76.5087 81.1904 75.88 82.7018 74.5827C85.2612 72.3938 85.9655 68.9877 84.4855 65.9159Z" fill="#F2C94C"/>
<path d="M44.5833 28.9785H24.5208C23.2903 28.9785 22.2915 29.9773 22.2915 31.2078C22.2915 32.4383 23.2903 33.437 24.5208 33.437H44.5833C45.8138 33.437 46.8125 32.4383 46.8125 31.2078C46.8125 29.9773 45.8138 28.9785 44.5833 28.9785Z" fill="#F2C94C"/>
<path d="M91.0169 61.1719C90.3258 60.151 88.9437 59.8701 87.9229 60.5656L81.4048 64.9436C80.384 65.6301 80.1119 67.0167 80.7986 68.0376C81.231 68.6752 81.9355 69.023 82.6533 69.023C83.0769 69.023 83.5093 68.9026 83.8928 68.6441L90.4108 64.2661C91.4315 63.5794 91.7034 62.193 91.0169 61.1719Z" fill="#F2C94C"/>
<path d="M77.1781 71.8098C75.5821 70.5526 68.4443 63.2454 64.0305 58.6444C63.1789 57.7527 61.7657 57.7216 60.8784 58.5776C59.9867 59.4292 59.9599 60.8423 60.8115 61.7297C61.9574 62.9244 72.0643 73.4596 74.4139 75.3143C74.8195 75.6353 75.31 75.7914 75.7915 75.7914C76.4469 75.7914 77.1023 75.4972 77.548 74.9398C78.3106 73.9766 78.1457 72.5722 77.1781 71.8098Z" fill="#F2C94C"/>
<path d="M68.2704 76.2813C65.5998 74.1457 58.8901 67.0168 57.3742 65.3673C56.5359 64.4578 55.1315 64.4043 54.222 65.2335C53.3169 66.0672 53.2547 67.4805 54.0883 68.3856C54.1685 68.4703 62.1758 77.1151 65.4838 79.7634C65.894 80.0888 66.3889 80.2493 66.8748 80.2493C67.5258 80.2493 68.1766 79.9594 68.6179 79.4156C69.3851 78.4524 69.229 77.048 68.2704 76.2813Z" fill="#F2C94C"/>
<path d="M59.3984 80.7712C56.2195 78.0918 49.7149 71.168 48.4442 69.8081C47.6016 68.9076 46.1883 68.8585 45.2921 69.7011C44.3916 70.5437 44.3469 71.9525 45.1851 72.8532C47.0131 74.8103 53.2369 81.4088 56.5227 84.1818C56.9418 84.534 57.45 84.7078 57.9583 84.7078C58.5913 84.7078 59.2245 84.436 59.6659 83.9143C60.4594 82.9691 60.339 81.5647 59.3984 80.7712Z" fill="#F2C94C"/>
<path d="M26.0545 25.1312C22.2336 21.511 6.955 20.3384 2.36299 20.0665C1.72997 20.0354 1.14586 20.2448 0.700098 20.6684C0.254125 21.0874 0 21.6759 0 22.2911V62.4161C0 63.6466 0.998736 64.6454 2.22924 64.6454H15.6042C16.5672 64.6454 17.4232 64.0257 17.7219 63.1073C18.0473 62.1085 25.7291 38.533 26.741 26.9413C26.7991 26.2635 26.5494 25.5948 26.0545 25.1312ZM13.9769 60.1871H4.45826V24.6809C11.6229 25.247 19.3536 26.4775 22.1624 27.8418C20.981 37.6055 15.6354 54.9529 13.9769 60.1871Z" fill="#F2C94C"/>
<path d="M104.771 24.52C87.2673 24.52 77.557 29.0006 77.1514 29.1879C76.5719 29.4598 76.1393 29.9636 75.961 30.5745C75.7828 31.1854 75.8718 31.8407 76.2062 32.3845C78.9614 36.8206 87.5883 61.4574 89.2468 67.4672C89.5143 68.4345 90.3927 69.1033 91.3958 69.1033H104.771C106.001 69.1033 107 68.1046 107 66.8741V26.749C107 25.5142 106.001 24.52 104.771 24.52ZM102.542 64.645H93.0633C90.95 57.7613 84.7083 39.812 81.2264 32.3935C84.628 31.2389 91.9354 29.2548 102.542 29.0052V64.645Z" fill="#F2C94C"/>
</g>
<defs>
<clipPath id="clip0_42_14">
<rect width="107" height="107" fill="white"/>
</clipPath>
</defs>
</svg>
