<svg width="32" height="32" viewBox="0 0 32 32" fill="none" xmlns="http://www.w3.org/2000/svg">
<path d="M16.004 0H15.996C7.174 0 0 7.176 0 16C0 19.5 1.128 22.744 3.046 25.378L1.052 31.322L7.202 29.356C9.732 31.032 12.75 32 16.004 32C24.826 32 32 24.822 32 16C32 7.178 24.826 0 16.004 0Z" fill="#F2C94C"/>
<path d="M25.314 22.5943C24.928 23.6843 23.396 24.5883 22.174 24.8523C21.338 25.0303 20.246 25.1723 16.57 23.6483C11.868 21.7004 8.83998 16.9224 8.60398 16.6124C8.37798 16.3024 6.70398 14.0824 6.70398 11.7864C6.70398 9.49036 7.86998 8.37236 8.33998 7.89236C8.72598 7.49836 9.36398 7.31836 9.97598 7.31836C10.174 7.31836 10.352 7.32836 10.512 7.33636C10.982 7.35636 11.218 7.38436 11.528 8.12636C11.914 9.05636 12.854 11.3524 12.966 11.5884C13.08 11.8244 13.194 12.1444 13.034 12.4544C12.884 12.7744 12.752 12.9164 12.516 13.1884C12.28 13.4604 12.056 13.6684 11.82 13.9604C11.604 14.2144 11.36 14.4864 11.632 14.9564C11.904 15.4164 12.844 16.9504 14.228 18.1824C16.014 19.7724 17.462 20.2804 17.98 20.4964C18.366 20.6564 18.826 20.6184 19.108 20.3184C19.466 19.9324 19.908 19.2924 20.358 18.6624C20.678 18.2104 21.082 18.1544 21.506 18.3144C21.938 18.4644 24.224 19.5944 24.694 19.8284C25.164 20.0644 25.474 20.1764 25.588 20.3744C25.7 20.5724 25.7 21.5023 25.314 22.5943Z" fill="#4F4F4F"/>
</svg>
