<svg width="32" height="32" viewBox="0 0 32 32" fill="none" xmlns="http://www.w3.org/2000/svg">
<g clip-path="url(#clip0_23_856)">
<path d="M29.8667 8H10.1333C8.95513 8 8 8.95513 8 10.1333V29.8667C8 31.0449 8.95513 32 10.1333 32H29.8667C31.0449 32 32 31.0449 32 29.8667V10.1333C32 8.95513 31.0449 8 29.8667 8ZM30.9334 10.1333V29.8667C30.932 29.9589 30.9188 30.0505 30.8939 30.1392L20.7541 20L30.8939 9.8608C30.9188 9.94956 30.932 10.0412 30.9334 10.1333ZM29.8667 9.06667C29.9589 9.06792 30.0505 9.08137 30.1392 9.10667L20 19.2459L9.8608 9.10667C9.94948 9.08137 10.0411 9.06792 10.1333 9.06667H29.8667ZM9.10613 30.1392C9.08126 30.0505 9.06799 29.9589 9.06667 29.8667V10.1333C9.06799 10.0412 9.08126 9.94956 9.10613 9.8608L19.2459 20L9.10613 30.1392ZM10.1333 30.9334C10.0411 30.9321 9.94948 30.9187 9.8608 30.8934L20 20.7542L30.1392 30.8934C30.0505 30.9187 29.9589 30.9321 29.8667 30.9334H10.1333Z" fill="#F2994A"/>
<path d="M5.45656 12.0684C5.64507 12.2949 5.98151 12.3257 6.20802 12.1372C6.43453 11.9487 6.46533 11.6122 6.27682 11.3857L3.61016 8.1857C3.50539 8.06965 3.35637 8.00342 3.20002 8.00342C3.04368 8.00342 2.89465 8.06965 2.78989 8.1857L0.123226 11.3857C-0.0652875 11.6122 -0.0344847 11.9487 0.192026 12.1372C0.418536 12.3257 0.754979 12.2949 0.943492 12.0684L2.66669 10.0001L2.66672 29.9933L0.943525 27.925C0.755012 27.6985 0.418569 27.6677 0.192059 27.8562C-0.0344513 28.0447 -0.0652542 28.3812 0.123259 28.6077L2.78992 31.8077C2.89125 31.9296 3.04155 32.0001 3.20006 32.0001C3.35857 32.0001 3.50886 31.9296 3.61019 31.8077L6.27685 28.6077C6.3988 28.4612 6.43331 28.2607 6.36739 28.0818C6.30147 27.903 6.14513 27.7728 5.95726 27.7405C5.76939 27.7081 5.57854 27.7785 5.45659 27.925L3.73339 29.9933L3.73336 10.0001L5.45656 12.0684Z" fill="#F2994A"/>
<path d="M12.2331 0.19231C12.1406 0.083397 12.0076 0.0149925 11.8635 0.00218562C11.7194 -0.0106213 11.576 0.0332217 11.4649 0.124043L8.1959 2.79071C8.07176 2.89204 8 3.04209 8 3.20031C8 3.35853 8.07176 3.50858 8.1959 3.60991L11.4649 6.27657C11.6144 6.39871 11.8191 6.4335 12.0019 6.36784C12.1847 6.30218 12.3178 6.14604 12.3512 5.95824C12.3845 5.77044 12.3129 5.57951 12.1634 5.45738L10.05 3.73364L29.95 3.73353L27.8366 5.45726C27.6871 5.5794 27.6155 5.77033 27.6488 5.95813C27.6822 6.14592 27.8153 6.30206 27.9981 6.36772C28.1809 6.43339 28.3856 6.3986 28.5351 6.27646L31.8041 3.60979C31.9282 3.50846 32 3.35841 32 3.20019C32 3.04198 31.9282 2.89193 31.8041 2.79059L28.5351 0.123929C28.3856 0.0017916 28.1809 -0.0329985 27.9981 0.0326636C27.8153 0.0983256 27.6822 0.254464 27.6488 0.442263C27.6155 0.630063 27.6871 0.820991 27.8366 0.943128L29.95 2.66686L10.05 2.66698L12.1634 0.943243C12.3944 0.754687 12.4256 0.418553 12.2331 0.19231Z" fill="#F2994A"/>
</g>
<defs>
<clipPath id="clip0_23_856">
<rect width="32" height="32" fill="white"/>
</clipPath>
</defs>
</svg>
