<svg width="32" height="32" viewBox="0 0 32 32" fill="none" xmlns="http://www.w3.org/2000/svg">
<g clip-path="url(#clip0_23_839)">
<path d="M31.3568 0H0.643113C0.28802 0 0.00012207 0.287898 0.00012207 0.642991V31.357C0.00012207 31.7121 0.28802 32 0.643113 32H19.3755C19.7306 32 20.0183 31.7121 20.0183 31.357C20.0183 31.0019 19.7306 30.714 19.3755 30.714H1.2861V15.7277H10.2545V21.8918C10.2545 22.2469 10.5424 22.5348 10.8975 22.5348C11.2526 22.5348 11.5405 22.2469 11.5405 21.8918V8.42889C11.5405 8.0738 11.2526 7.7859 10.8975 7.7859C10.5424 7.7859 10.2545 8.0738 10.2545 8.42889V14.4417H1.2861V1.28598H18.7326V9.33687C18.7326 9.69196 19.0204 9.97986 19.3755 9.97986H26.1754C26.5305 9.97986 26.8182 9.69196 26.8182 9.33687C26.8182 8.98178 26.5305 8.69388 26.1754 8.69388H20.0183V1.28598H30.714V21.2489H19.3755C19.0204 21.2489 18.7326 21.5368 18.7326 21.8919C18.7326 22.247 19.0204 22.5349 19.3755 22.5349H30.714V30.7143H26.1754C25.8203 30.7143 25.5325 31.0022 25.5325 31.3573C25.5325 31.7124 25.8203 32.0003 26.1754 32.0003H31.3568C31.7119 32.0003 31.9997 31.7124 31.9997 31.3573V0.642991C31.9998 0.287898 31.7121 0 31.3568 0Z" fill="#F2994A"/>
</g>
<defs>
<clipPath id="clip0_23_839">
<rect width="32" height="32" fill="white"/>
</clipPath>
</defs>
</svg>
